/* XPM */
static char * C:\Users\Usuario\Downloads\turquoise_grass\button_max_xpm[] = {
"16 16 3 1",
" 	c None",
".	c #151515",
"+	c #777777",
"................",
"................",
"................",
"................",
".....++++.......",
".........+......",
".........+......",
".........+......",
".........+......",
"................",
"................",
"................",
"................",
"................",
"................",
"................"};
