/* XPM */
static char * C:\Users\Usuario\Downloads\turquoise_grass\old\button_min_xpm[] = {
"16 16 3 1",
" 	c None",
".	c #000000",
"+	c #FFFFFF",
"................",
"................",
"................",
"................",
"................",
"................",
"................",
"..++............",
"..++............",
"..++............",
"..++............",
"....++++++......",
"....++++++......",
"................",
"................",
"................"};
